<svg xmlns="http://www.w3.org/2000/svg" viewBox="0 0 48 48" fill="none" stroke="currentColor" stroke-width="2" stroke-linecap="round" stroke-linejoin="round">
  <!-- Helmet dome -->
  <path d="M10 28 L10 18 Q10 6 24 6 Q38 6 38 18 L38 28"/>
  <!-- Visor slit -->
  <path d="M14 22 L34 22 L34 26 L14 26 Z"/>
  <!-- Visor inner line -->
  <line x1="16" y1="24" x2="32" y2="24"/>
  <!-- Chin/jaw -->
  <path d="M10 28 Q10 38 16 40 L20 42 L28 42 L32 40 Q38 38 38 28"/>
  <!-- Breather -->
  <rect x="20" y="32" width="8" height="4" rx="1"/>
  <line x1="22" y1="32" x2="22" y2="36"/>
  <line x1="24" y1="32" x2="24" y2="36"/>
  <line x1="26" y1="32" x2="26" y2="36"/>
  <!-- Antenna nub -->
  <line x1="34" y1="12" x2="40" y2="8"/>
</svg>
