<svg xmlns="http://www.w3.org/2000/svg" viewBox="0 0 48 48" fill="none" stroke="currentColor" stroke-width="2" stroke-linecap="round" stroke-linejoin="round">
  <!-- Palm -->
  <path d="M14 28 L14 36 Q14 42 20 42 L28 42 Q34 42 34 36 L34 28"/>
  <!-- Wrist -->
  <rect x="14" y="38" width="20" height="6" rx="1"/>
  <!-- Fingers -->
  <path d="M16 28 L16 12 Q16 10 18 10 L18 12 Q18 10 20 10 L20 28"/>
  <path d="M22 28 L22 8 Q22 6 24 6 L24 8 Q24 6 26 6 L26 28"/>
  <path d="M28 28 L28 12 Q28 10 30 10 L30 12 Q30 10 32 10 L32 28"/>
  <!-- Joint lines -->
  <line x1="16" y1="18" x2="20" y2="18"/>
  <line x1="22" y1="14" x2="26" y2="14"/>
  <line x1="28" y1="18" x2="32" y2="18"/>
  <!-- Mechanical detail -->
  <circle cx="24" cy="32" r="3"/>
  <circle cx="24" cy="32" r="1"/>
</svg>
