<svg xmlns="http://www.w3.org/2000/svg" viewBox="0 0 48 48" fill="none" stroke="currentColor" stroke-width="2" stroke-linecap="round" stroke-linejoin="round">
  <!-- Body -->
  <ellipse cx="24" cy="26" rx="14" ry="8"/>
  <!-- Head -->
  <path d="M38 24 Q42 20 44 22 Q44 26 40 28 L38 28"/>
  <!-- Ears -->
  <path d="M42 20 L44 16"/>
  <!-- Legs -->
  <line x1="16" y1="34" x2="14" y2="42"/>
  <line x1="20" y1="34" x2="18" y2="42"/>
  <line x1="28" y1="34" x2="30" y2="42"/>
  <line x1="32" y1="34" x2="34" y2="42"/>
  <!-- Hooves -->
  <line x1="12" y1="42" x2="16" y2="42"/>
  <line x1="16" y1="42" x2="20" y2="42"/>
  <line x1="28" y1="42" x2="32" y2="42"/>
  <line x1="32" y1="42" x2="36" y2="42"/>
  <!-- Tail -->
  <path d="M10 24 Q6 20 4 22"/>
  <!-- Eye -->
  <circle cx="42" cy="23" r="1" fill="currentColor"/>
</svg>
